# xmcd CD database file
#
# Track frame offsets:
#	150
#	20707
#	39957
#
# Disc length: 803 seconds
#
# Revision: 0
# Processed by: cddbd v1.5PL3 Copyright (c) Steve Scherf et al.
# Submitted via: CDex 1.51
#
DISCID=1b032103
DTITLE=EXILE - ki・zu・na
DYEAR=2003
DGENRE=JPop
TTITLE0=ki・zu・na
TTITLE1=ki・zu・na  K.H Break Mix version
TTITLE2=ki・zu・na Instrumental
EXTD=YEAR: 2003
EXTT0=
EXTT1=
EXTT2=
PLAYORDER=
